<mxfile host="Electron" agent="Mozilla/5.0 (Windows NT 10.0; Win64; x64) AppleWebKit/537.36 (KHTML, like Gecko) draw.io/28.1.2 Chrome/138.0.7204.243 Electron/37.4.0 Safari/537.36" version="28.1.2">
  <diagram name="Page-1" id="f8aVGQc8Bzc7P6kS5Moe">
    <mxGraphModel dx="2466" dy="2001" grid="1" gridSize="10" guides="1" tooltips="1" connect="1" arrows="1" fold="1" page="0" pageScale="1" pageWidth="1100" pageHeight="850" background="none" math="0" shadow="0">
      <root>
        <mxCell id="0" />
        <mxCell id="1" parent="0" />
        <mxCell id="REaxnGKnSWV2FAkNkw_x-22" style="edgeStyle=orthogonalEdgeStyle;rounded=0;orthogonalLoop=1;jettySize=auto;html=1;entryX=0.5;entryY=1;entryDx=0;entryDy=0;" parent="1" source="REaxnGKnSWV2FAkNkw_x-2" target="REaxnGKnSWV2FAkNkw_x-17" edge="1">
          <mxGeometry relative="1" as="geometry" />
        </mxCell>
        <mxCell id="REaxnGKnSWV2FAkNkw_x-23" style="edgeStyle=orthogonalEdgeStyle;rounded=0;orthogonalLoop=1;jettySize=auto;html=1;entryX=0;entryY=0.5;entryDx=0;entryDy=0;" parent="1" source="REaxnGKnSWV2FAkNkw_x-2" target="REaxnGKnSWV2FAkNkw_x-19" edge="1">
          <mxGeometry relative="1" as="geometry" />
        </mxCell>
        <mxCell id="REaxnGKnSWV2FAkNkw_x-2" value="&lt;font style=&quot;font-size: 18px;&quot;&gt;Professor&lt;/font&gt;" style="rounded=0;whiteSpace=wrap;html=1;fillColor=#a20025;fontColor=#ffffff;strokeColor=#6F0000;" parent="1" vertex="1">
          <mxGeometry x="1290" y="-600" width="200" height="80" as="geometry" />
        </mxCell>
        <mxCell id="REaxnGKnSWV2FAkNkw_x-32" value="4" style="edgeStyle=orthogonalEdgeStyle;rounded=0;orthogonalLoop=1;jettySize=auto;html=1;entryX=1;entryY=0.5;entryDx=0;entryDy=0;" parent="1" source="REaxnGKnSWV2FAkNkw_x-3" target="REaxnGKnSWV2FAkNkw_x-30" edge="1">
          <mxGeometry relative="1" as="geometry">
            <Array as="points">
              <mxPoint x="220" y="-260" />
            </Array>
          </mxGeometry>
        </mxCell>
        <mxCell id="REaxnGKnSWV2FAkNkw_x-33" style="edgeStyle=orthogonalEdgeStyle;rounded=0;orthogonalLoop=1;jettySize=auto;html=1;entryX=0.5;entryY=0;entryDx=0;entryDy=0;" parent="1" source="REaxnGKnSWV2FAkNkw_x-3" target="REaxnGKnSWV2FAkNkw_x-31" edge="1">
          <mxGeometry relative="1" as="geometry" />
        </mxCell>
        <mxCell id="REaxnGKnSWV2FAkNkw_x-3" value="&lt;font style=&quot;font-size: 18px;&quot;&gt;Course&lt;/font&gt;" style="rounded=0;whiteSpace=wrap;html=1;fillColor=#a20025;fontColor=#ffffff;strokeColor=#6F0000;" parent="1" vertex="1">
          <mxGeometry x="120" y="-200" width="200" height="80" as="geometry" />
        </mxCell>
        <mxCell id="REaxnGKnSWV2FAkNkw_x-42" style="edgeStyle=orthogonalEdgeStyle;rounded=0;orthogonalLoop=1;jettySize=auto;html=1;" parent="1" source="REaxnGKnSWV2FAkNkw_x-4" target="REaxnGKnSWV2FAkNkw_x-34" edge="1">
          <mxGeometry relative="1" as="geometry">
            <Array as="points">
              <mxPoint x="1370" y="600" />
            </Array>
          </mxGeometry>
        </mxCell>
        <mxCell id="REaxnGKnSWV2FAkNkw_x-45" style="edgeStyle=orthogonalEdgeStyle;rounded=0;orthogonalLoop=1;jettySize=auto;html=1;entryX=0;entryY=0.5;entryDx=0;entryDy=0;" parent="1" source="REaxnGKnSWV2FAkNkw_x-4" target="REaxnGKnSWV2FAkNkw_x-36" edge="1">
          <mxGeometry relative="1" as="geometry">
            <Array as="points">
              <mxPoint x="1610" y="780" />
              <mxPoint x="1610" y="920" />
            </Array>
          </mxGeometry>
        </mxCell>
        <mxCell id="REaxnGKnSWV2FAkNkw_x-46" style="edgeStyle=orthogonalEdgeStyle;rounded=0;orthogonalLoop=1;jettySize=auto;html=1;" parent="1" source="REaxnGKnSWV2FAkNkw_x-4" target="REaxnGKnSWV2FAkNkw_x-39" edge="1">
          <mxGeometry relative="1" as="geometry">
            <Array as="points">
              <mxPoint x="1430" y="820" />
              <mxPoint x="1600" y="820" />
            </Array>
          </mxGeometry>
        </mxCell>
        <mxCell id="REaxnGKnSWV2FAkNkw_x-47" style="edgeStyle=orthogonalEdgeStyle;rounded=0;orthogonalLoop=1;jettySize=auto;html=1;entryX=0.5;entryY=0;entryDx=0;entryDy=0;" parent="1" source="REaxnGKnSWV2FAkNkw_x-4" target="REaxnGKnSWV2FAkNkw_x-37" edge="1">
          <mxGeometry relative="1" as="geometry" />
        </mxCell>
        <mxCell id="REaxnGKnSWV2FAkNkw_x-108" style="edgeStyle=orthogonalEdgeStyle;rounded=0;orthogonalLoop=1;jettySize=auto;html=1;" parent="1" source="REaxnGKnSWV2FAkNkw_x-4" target="REaxnGKnSWV2FAkNkw_x-107" edge="1">
          <mxGeometry relative="1" as="geometry">
            <Array as="points">
              <mxPoint x="1350" y="870" />
              <mxPoint x="1240" y="870" />
            </Array>
          </mxGeometry>
        </mxCell>
        <mxCell id="REaxnGKnSWV2FAkNkw_x-149" style="edgeStyle=orthogonalEdgeStyle;rounded=0;orthogonalLoop=1;jettySize=auto;html=1;entryX=0;entryY=1;entryDx=0;entryDy=0;" parent="1" source="REaxnGKnSWV2FAkNkw_x-4" target="REaxnGKnSWV2FAkNkw_x-35" edge="1">
          <mxGeometry relative="1" as="geometry">
            <Array as="points">
              <mxPoint x="1518" y="720" />
            </Array>
          </mxGeometry>
        </mxCell>
        <mxCell id="REaxnGKnSWV2FAkNkw_x-4" value="&lt;font style=&quot;font-size: 18px;&quot;&gt;Student&lt;/font&gt;" style="rounded=0;whiteSpace=wrap;html=1;fillColor=#a20025;fontColor=#ffffff;strokeColor=#6F0000;" parent="1" vertex="1">
          <mxGeometry x="1290" y="720" width="200" height="80" as="geometry" />
        </mxCell>
        <mxCell id="REaxnGKnSWV2FAkNkw_x-50" style="edgeStyle=orthogonalEdgeStyle;rounded=0;orthogonalLoop=1;jettySize=auto;html=1;entryX=1;entryY=0.5;entryDx=0;entryDy=0;" parent="1" source="REaxnGKnSWV2FAkNkw_x-5" target="REaxnGKnSWV2FAkNkw_x-48" edge="1">
          <mxGeometry relative="1" as="geometry" />
        </mxCell>
        <mxCell id="REaxnGKnSWV2FAkNkw_x-51" style="edgeStyle=orthogonalEdgeStyle;rounded=0;orthogonalLoop=1;jettySize=auto;html=1;" parent="1" source="REaxnGKnSWV2FAkNkw_x-5" target="REaxnGKnSWV2FAkNkw_x-49" edge="1">
          <mxGeometry relative="1" as="geometry">
            <Array as="points">
              <mxPoint x="160" y="330" />
            </Array>
          </mxGeometry>
        </mxCell>
        <mxCell id="REaxnGKnSWV2FAkNkw_x-111" style="edgeStyle=orthogonalEdgeStyle;rounded=0;orthogonalLoop=1;jettySize=auto;html=1;" parent="1" source="REaxnGKnSWV2FAkNkw_x-5" target="REaxnGKnSWV2FAkNkw_x-109" edge="1">
          <mxGeometry relative="1" as="geometry">
            <Array as="points">
              <mxPoint x="45" y="250" />
              <mxPoint x="45" y="230" />
            </Array>
          </mxGeometry>
        </mxCell>
        <mxCell id="REaxnGKnSWV2FAkNkw_x-114" style="edgeStyle=orthogonalEdgeStyle;rounded=0;orthogonalLoop=1;jettySize=auto;html=1;entryX=1;entryY=0.5;entryDx=0;entryDy=0;" parent="1" source="REaxnGKnSWV2FAkNkw_x-5" target="REaxnGKnSWV2FAkNkw_x-112" edge="1">
          <mxGeometry relative="1" as="geometry">
            <Array as="points">
              <mxPoint x="220" y="370" />
              <mxPoint x="120" y="370" />
              <mxPoint x="120" y="450" />
            </Array>
          </mxGeometry>
        </mxCell>
        <mxCell id="REaxnGKnSWV2FAkNkw_x-5" value="&lt;font style=&quot;font-size: 18px;&quot;&gt;Exam&lt;/font&gt;" style="rounded=0;whiteSpace=wrap;html=1;fillColor=#a20025;fontColor=#ffffff;strokeColor=#6F0000;" parent="1" vertex="1">
          <mxGeometry x="120" y="195" width="200" height="80" as="geometry" />
        </mxCell>
        <mxCell id="REaxnGKnSWV2FAkNkw_x-57" style="edgeStyle=orthogonalEdgeStyle;rounded=0;orthogonalLoop=1;jettySize=auto;html=1;entryX=1;entryY=0.5;entryDx=0;entryDy=0;" parent="1" source="REaxnGKnSWV2FAkNkw_x-8" target="REaxnGKnSWV2FAkNkw_x-56" edge="1">
          <mxGeometry relative="1" as="geometry" />
        </mxCell>
        <mxCell id="REaxnGKnSWV2FAkNkw_x-106" style="edgeStyle=orthogonalEdgeStyle;rounded=0;orthogonalLoop=1;jettySize=auto;html=1;entryX=1;entryY=0.5;entryDx=0;entryDy=0;" parent="1" source="REaxnGKnSWV2FAkNkw_x-8" target="REaxnGKnSWV2FAkNkw_x-105" edge="1">
          <mxGeometry relative="1" as="geometry">
            <Array as="points">
              <mxPoint x="210" y="1000" />
            </Array>
          </mxGeometry>
        </mxCell>
        <mxCell id="REaxnGKnSWV2FAkNkw_x-8" value="&lt;font style=&quot;font-size: 18px; color: rgb(255, 255, 255);&quot;&gt;Answer&lt;/font&gt;" style="rounded=0;whiteSpace=wrap;html=1;fillColor=#a20025;fontColor=#ffffff;strokeColor=#6F0000;" parent="1" vertex="1">
          <mxGeometry x="135" y="720" width="200" height="80" as="geometry" />
        </mxCell>
        <mxCell id="REaxnGKnSWV2FAkNkw_x-55" style="edgeStyle=orthogonalEdgeStyle;rounded=0;orthogonalLoop=1;jettySize=auto;html=1;" parent="1" source="REaxnGKnSWV2FAkNkw_x-10" target="REaxnGKnSWV2FAkNkw_x-53" edge="1">
          <mxGeometry relative="1" as="geometry">
            <Array as="points">
              <mxPoint x="1650" y="250" />
            </Array>
          </mxGeometry>
        </mxCell>
        <mxCell id="REaxnGKnSWV2FAkNkw_x-116" style="edgeStyle=orthogonalEdgeStyle;rounded=0;orthogonalLoop=1;jettySize=auto;html=1;entryX=0.5;entryY=0;entryDx=0;entryDy=0;" parent="1" source="REaxnGKnSWV2FAkNkw_x-10" target="REaxnGKnSWV2FAkNkw_x-115" edge="1">
          <mxGeometry relative="1" as="geometry" />
        </mxCell>
        <mxCell id="REaxnGKnSWV2FAkNkw_x-119" style="edgeStyle=orthogonalEdgeStyle;rounded=0;orthogonalLoop=1;jettySize=auto;html=1;entryX=0.5;entryY=1;entryDx=0;entryDy=0;" parent="1" source="REaxnGKnSWV2FAkNkw_x-10" target="REaxnGKnSWV2FAkNkw_x-118" edge="1">
          <mxGeometry relative="1" as="geometry" />
        </mxCell>
        <mxCell id="REaxnGKnSWV2FAkNkw_x-10" value="&lt;span style=&quot;font-size: 18px;&quot;&gt;Question&lt;/span&gt;" style="rounded=0;whiteSpace=wrap;html=1;fillColor=#a20025;fontColor=#ffffff;strokeColor=#6F0000;" parent="1" vertex="1">
          <mxGeometry x="1290" y="200" width="200" height="80" as="geometry" />
        </mxCell>
        <mxCell id="REaxnGKnSWV2FAkNkw_x-17" value="&lt;font style=&quot;font-size: 18px;&quot;&gt;&lt;u&gt;&lt;b&gt;Prof.id&lt;/b&gt;&lt;/u&gt;&lt;/font&gt;" style="ellipse;whiteSpace=wrap;html=1;fillColor=#f5f5f5;strokeColor=#666666;fillStyle=solid;rounded=0;fontColor=#333333;" parent="1" vertex="1">
          <mxGeometry x="1340" y="-790" width="120" height="80" as="geometry" />
        </mxCell>
        <mxCell id="REaxnGKnSWV2FAkNkw_x-19" value="&lt;font style=&quot;font-size: 18px;&quot;&gt;Prof-name&lt;/font&gt;" style="ellipse;whiteSpace=wrap;html=1;rounded=0;fillColor=light-dark(#FFFF88,#4D4D4D);strokeColor=#36393d;" parent="1" vertex="1">
          <mxGeometry x="1590" y="-710" width="120" height="80" as="geometry" />
        </mxCell>
        <mxCell id="REaxnGKnSWV2FAkNkw_x-20" value="&lt;span style=&quot;font-size: 18px;&quot;&gt;Prof_email&lt;/span&gt;" style="ellipse;whiteSpace=wrap;html=1;fillColor=light-dark(#FFFF88,#4D4D4D);strokeColor=#36393d;rounded=0;" parent="1" vertex="1">
          <mxGeometry x="1590" y="-530" width="120" height="80" as="geometry" />
        </mxCell>
        <mxCell id="REaxnGKnSWV2FAkNkw_x-24" style="edgeStyle=orthogonalEdgeStyle;rounded=0;orthogonalLoop=1;jettySize=auto;html=1;entryX=0.084;entryY=0.761;entryDx=0;entryDy=0;entryPerimeter=0;" parent="1" source="REaxnGKnSWV2FAkNkw_x-2" target="REaxnGKnSWV2FAkNkw_x-20" edge="1">
          <mxGeometry relative="1" as="geometry">
            <Array as="points">
              <mxPoint x="1535" y="-540" />
              <mxPoint x="1535" y="-469" />
            </Array>
          </mxGeometry>
        </mxCell>
        <mxCell id="REaxnGKnSWV2FAkNkw_x-25" style="edgeStyle=orthogonalEdgeStyle;rounded=0;orthogonalLoop=1;jettySize=auto;html=1;" parent="1" source="REaxnGKnSWV2FAkNkw_x-27" target="REaxnGKnSWV2FAkNkw_x-28" edge="1">
          <mxGeometry relative="1" as="geometry" />
        </mxCell>
        <mxCell id="REaxnGKnSWV2FAkNkw_x-26" style="edgeStyle=orthogonalEdgeStyle;rounded=0;orthogonalLoop=1;jettySize=auto;html=1;" parent="1" source="REaxnGKnSWV2FAkNkw_x-27" target="REaxnGKnSWV2FAkNkw_x-29" edge="1">
          <mxGeometry relative="1" as="geometry" />
        </mxCell>
        <mxCell id="REaxnGKnSWV2FAkNkw_x-182" style="edgeStyle=orthogonalEdgeStyle;rounded=0;orthogonalLoop=1;jettySize=auto;html=1;exitX=0.5;exitY=0;exitDx=0;exitDy=0;entryX=0.5;entryY=1;entryDx=0;entryDy=0;" parent="1" source="REaxnGKnSWV2FAkNkw_x-27" target="REaxnGKnSWV2FAkNkw_x-181" edge="1">
          <mxGeometry relative="1" as="geometry">
            <Array as="points">
              <mxPoint x="270" y="-600" />
              <mxPoint x="270" y="-660" />
              <mxPoint x="390" y="-660" />
            </Array>
          </mxGeometry>
        </mxCell>
        <mxCell id="REaxnGKnSWV2FAkNkw_x-27" value="&lt;font style=&quot;font-size: 18px;&quot;&gt;Department&lt;/font&gt;" style="rounded=0;whiteSpace=wrap;html=1;fillColor=#a20025;fontColor=#ffffff;strokeColor=#6F0000;" parent="1" vertex="1">
          <mxGeometry x="120" y="-600" width="200" height="80" as="geometry" />
        </mxCell>
        <mxCell id="REaxnGKnSWV2FAkNkw_x-28" value="&lt;font style=&quot;font-size: 18px;&quot;&gt;&lt;u&gt;&lt;b&gt;Dep.id&lt;/b&gt;&lt;/u&gt;&lt;/font&gt;" style="ellipse;whiteSpace=wrap;html=1;fillColor=#f5f5f5;strokeColor=#666666;fillStyle=solid;rounded=0;fontColor=#333333;" parent="1" vertex="1">
          <mxGeometry x="-40" y="-760" width="120" height="80" as="geometry" />
        </mxCell>
        <mxCell id="REaxnGKnSWV2FAkNkw_x-29" value="&lt;font style=&quot;font-size: 18px;&quot;&gt;Dep-name&lt;/font&gt;" style="ellipse;whiteSpace=wrap;html=1;fillColor=light-dark(#FFFF88,#333333);strokeColor=#36393d;rounded=0;" parent="1" vertex="1">
          <mxGeometry x="150" y="-780" width="120" height="80" as="geometry" />
        </mxCell>
        <mxCell id="REaxnGKnSWV2FAkNkw_x-30" value="&lt;font style=&quot;font-size: 18px;&quot;&gt;&lt;u&gt;&lt;b&gt;Course.id&lt;/b&gt;&lt;/u&gt;&lt;/font&gt;" style="ellipse;whiteSpace=wrap;html=1;fillColor=#f5f5f5;strokeColor=#666666;fillStyle=solid;rounded=0;fontColor=#333333;" parent="1" vertex="1">
          <mxGeometry x="-40" y="-300" width="120" height="80" as="geometry" />
        </mxCell>
        <mxCell id="REaxnGKnSWV2FAkNkw_x-31" value="&lt;font style=&quot;font-size: 18px;&quot;&gt;Course-name&lt;/font&gt;" style="ellipse;whiteSpace=wrap;html=1;fillColor=light-dark(#FFFF88,#333333);strokeColor=#36393d;rounded=0;" parent="1" vertex="1">
          <mxGeometry x="-40" y="-100" width="120" height="80" as="geometry" />
        </mxCell>
        <mxCell id="REaxnGKnSWV2FAkNkw_x-34" value="&lt;span style=&quot;font-size: 18px;&quot;&gt;&lt;b&gt;&lt;u&gt;Std.id&lt;/u&gt;&lt;/b&gt;&lt;/span&gt;" style="ellipse;whiteSpace=wrap;html=1;fillColor=#f5f5f5;strokeColor=#666666;rounded=0;fontColor=#333333;" parent="1" vertex="1">
          <mxGeometry x="1340" y="550" width="120" height="80" as="geometry" />
        </mxCell>
        <mxCell id="REaxnGKnSWV2FAkNkw_x-35" value="&lt;font style=&quot;font-size: 18px;&quot;&gt;Std-name&lt;/font&gt;" style="ellipse;whiteSpace=wrap;html=1;fillColor=light-dark(#FFFF88,#333333);strokeColor=#36393d;rounded=0;" parent="1" vertex="1">
          <mxGeometry x="1500" y="570" width="120" height="80" as="geometry" />
        </mxCell>
        <mxCell id="REaxnGKnSWV2FAkNkw_x-36" value="&lt;span style=&quot;font-size: 18px;&quot;&gt;user_name&lt;/span&gt;" style="ellipse;whiteSpace=wrap;html=1;fillColor=light-dark(#FFFF88,#333333);strokeColor=#36393d;rounded=0;" parent="1" vertex="1">
          <mxGeometry x="1690" y="880" width="120" height="80" as="geometry" />
        </mxCell>
        <mxCell id="REaxnGKnSWV2FAkNkw_x-37" value="&lt;font style=&quot;font-size: 18px;&quot;&gt;password&lt;/font&gt;" style="ellipse;whiteSpace=wrap;html=1;fillColor=light-dark(#FFFF88,#333333);strokeColor=#36393d;rounded=0;" parent="1" vertex="1">
          <mxGeometry x="1370" y="990" width="120" height="80" as="geometry" />
        </mxCell>
        <mxCell id="REaxnGKnSWV2FAkNkw_x-38" value="&lt;font style=&quot;font-size: 18px;&quot;&gt;level&lt;/font&gt;" style="ellipse;whiteSpace=wrap;html=1;fillColor=light-dark(#FFFF88,#333333);strokeColor=#36393d;rounded=0;" parent="1" vertex="1">
          <mxGeometry x="1790" y="790" width="120" height="80" as="geometry" />
        </mxCell>
        <mxCell id="REaxnGKnSWV2FAkNkw_x-39" value="&lt;font style=&quot;font-size: 18px;&quot;&gt;scientifc_degree&lt;/font&gt;" style="ellipse;whiteSpace=wrap;html=1;fillColor=light-dark(#FFFF88,#333333);strokeColor=#36393d;rounded=0;" parent="1" vertex="1">
          <mxGeometry x="1540" y="960" width="150" height="90" as="geometry" />
        </mxCell>
        <mxCell id="REaxnGKnSWV2FAkNkw_x-44" style="edgeStyle=orthogonalEdgeStyle;rounded=0;orthogonalLoop=1;jettySize=auto;html=1;entryX=-0.015;entryY=0.669;entryDx=0;entryDy=0;entryPerimeter=0;" parent="1" source="REaxnGKnSWV2FAkNkw_x-4" target="REaxnGKnSWV2FAkNkw_x-38" edge="1">
          <mxGeometry relative="1" as="geometry">
            <Array as="points">
              <mxPoint x="1635" y="760" />
              <mxPoint x="1635" y="844" />
            </Array>
          </mxGeometry>
        </mxCell>
        <mxCell id="REaxnGKnSWV2FAkNkw_x-48" value="&lt;span style=&quot;font-size: 18px;&quot;&gt;&lt;b&gt;&lt;u&gt;Exam.id&lt;/u&gt;&lt;/b&gt;&lt;/span&gt;" style="ellipse;whiteSpace=wrap;html=1;fillColor=#f5f5f5;strokeColor=#666666;rounded=0;fontColor=#333333;" parent="1" vertex="1">
          <mxGeometry x="-50" y="80" width="120" height="80" as="geometry" />
        </mxCell>
        <mxCell id="REaxnGKnSWV2FAkNkw_x-49" value="&lt;font style=&quot;font-size: 18px;&quot;&gt;Exam_date&lt;/font&gt;" style="ellipse;whiteSpace=wrap;html=1;fillColor=light-dark(#FFFF88,#333333);strokeColor=#36393d;rounded=0;" parent="1" vertex="1">
          <mxGeometry x="-50" y="290" width="120" height="80" as="geometry" />
        </mxCell>
        <mxCell id="REaxnGKnSWV2FAkNkw_x-52" value="&lt;font style=&quot;font-size: 18px;&quot;&gt;&lt;u&gt;&lt;b&gt;ques_id&lt;/b&gt;&lt;/u&gt;&lt;/font&gt;" style="ellipse;whiteSpace=wrap;html=1;fillColor=#f5f5f5;strokeColor=#666666;rounded=0;fontColor=#333333;" parent="1" vertex="1">
          <mxGeometry x="1590" y="120" width="120" height="80" as="geometry" />
        </mxCell>
        <mxCell id="REaxnGKnSWV2FAkNkw_x-53" value="&lt;font style=&quot;font-size: 18px;&quot;&gt;Mark_ques&lt;/font&gt;" style="ellipse;whiteSpace=wrap;html=1;fillColor=light-dark(#FFFF88,#333333);strokeColor=#36393d;rounded=0;" parent="1" vertex="1">
          <mxGeometry x="1590" y="300" width="120" height="80" as="geometry" />
        </mxCell>
        <mxCell id="REaxnGKnSWV2FAkNkw_x-54" style="edgeStyle=orthogonalEdgeStyle;rounded=0;orthogonalLoop=1;jettySize=auto;html=1;entryX=-0.015;entryY=0.387;entryDx=0;entryDy=0;entryPerimeter=0;" parent="1" source="REaxnGKnSWV2FAkNkw_x-10" target="REaxnGKnSWV2FAkNkw_x-52" edge="1">
          <mxGeometry relative="1" as="geometry">
            <Array as="points">
              <mxPoint x="1540" y="220" />
              <mxPoint x="1540" y="151" />
            </Array>
          </mxGeometry>
        </mxCell>
        <mxCell id="REaxnGKnSWV2FAkNkw_x-56" value="&lt;font style=&quot;font-size: 18px;&quot;&gt;Mark_obtained&lt;/font&gt;" style="ellipse;whiteSpace=wrap;html=1;fillColor=light-dark(#FFFF88,#333333);strokeColor=#36393d;rounded=0;" parent="1" vertex="1">
          <mxGeometry x="-150" y="720" width="150" height="90" as="geometry" />
        </mxCell>
        <mxCell id="REaxnGKnSWV2FAkNkw_x-58" value="&lt;font style=&quot;font-size: 18px;&quot;&gt;&lt;u&gt;Evaluation_id&lt;/u&gt;&lt;/font&gt;" style="ellipse;whiteSpace=wrap;html=1;rounded=0;fillColor=#f5f5f5;strokeColor=#666666;fontColor=#333333;" parent="1" vertex="1">
          <mxGeometry x="1450" y="-420" width="120" height="80" as="geometry" />
        </mxCell>
        <mxCell id="REaxnGKnSWV2FAkNkw_x-59" value="&lt;font style=&quot;font-size: 18px;&quot;&gt;course_rating&lt;/font&gt;" style="ellipse;whiteSpace=wrap;html=1;fillColor=light-dark(#FFFF88,#333333);strokeColor=#36393d;rounded=0;" parent="1" vertex="1">
          <mxGeometry x="1810" y="-420" width="160" height="100" as="geometry" />
        </mxCell>
        <mxCell id="REaxnGKnSWV2FAkNkw_x-64" style="edgeStyle=orthogonalEdgeStyle;rounded=0;orthogonalLoop=1;jettySize=auto;html=1;entryX=1;entryY=0.5;entryDx=0;entryDy=0;" parent="1" source="REaxnGKnSWV2FAkNkw_x-62" target="REaxnGKnSWV2FAkNkw_x-27" edge="1">
          <mxGeometry relative="1" as="geometry" />
        </mxCell>
        <mxCell id="REaxnGKnSWV2FAkNkw_x-62" value="&lt;font style=&quot;font-size: 20px;&quot;&gt;work&lt;/font&gt;" style="rhombus;whiteSpace=wrap;html=1;fillColor=#dae8fc;strokeColor=#6c8ebf;gradientColor=#7ea6e0;" parent="1" vertex="1">
          <mxGeometry x="700" y="-600" width="140" height="140" as="geometry" />
        </mxCell>
        <mxCell id="REaxnGKnSWV2FAkNkw_x-63" style="edgeStyle=orthogonalEdgeStyle;rounded=0;orthogonalLoop=1;jettySize=auto;html=1;entryX=-0.021;entryY=0.403;entryDx=0;entryDy=0;entryPerimeter=0;strokeWidth=3;" parent="1" source="REaxnGKnSWV2FAkNkw_x-62" target="REaxnGKnSWV2FAkNkw_x-2" edge="1">
          <mxGeometry relative="1" as="geometry" />
        </mxCell>
        <mxCell id="REaxnGKnSWV2FAkNkw_x-65" value="&lt;font style=&quot;font-size: 25px;&quot;&gt;1&lt;/font&gt;" style="text;html=1;align=center;verticalAlign=middle;whiteSpace=wrap;rounded=0;" parent="1" vertex="1">
          <mxGeometry x="320" y="-620" width="50" height="60" as="geometry" />
        </mxCell>
        <mxCell id="REaxnGKnSWV2FAkNkw_x-66" value="&lt;font style=&quot;font-size: 25px;&quot;&gt;M&lt;/font&gt;" style="text;html=1;align=center;verticalAlign=middle;whiteSpace=wrap;rounded=0;" parent="1" vertex="1">
          <mxGeometry x="1230" y="-620" width="50" height="60" as="geometry" />
        </mxCell>
        <mxCell id="REaxnGKnSWV2FAkNkw_x-69" style="edgeStyle=orthogonalEdgeStyle;rounded=0;orthogonalLoop=1;jettySize=auto;html=1;entryX=0.5;entryY=1;entryDx=0;entryDy=0;" parent="1" source="REaxnGKnSWV2FAkNkw_x-67" target="REaxnGKnSWV2FAkNkw_x-27" edge="1">
          <mxGeometry relative="1" as="geometry" />
        </mxCell>
        <mxCell id="REaxnGKnSWV2FAkNkw_x-152" style="edgeStyle=orthogonalEdgeStyle;rounded=0;orthogonalLoop=1;jettySize=auto;html=1;entryX=0.75;entryY=0;entryDx=0;entryDy=0;" parent="1" source="REaxnGKnSWV2FAkNkw_x-67" target="REaxnGKnSWV2FAkNkw_x-3" edge="1">
          <mxGeometry relative="1" as="geometry">
            <Array as="points">
              <mxPoint x="270" y="-340" />
            </Array>
          </mxGeometry>
        </mxCell>
        <mxCell id="REaxnGKnSWV2FAkNkw_x-67" value="&lt;font style=&quot;font-size: 20px;&quot;&gt;has&lt;/font&gt;" style="rhombus;whiteSpace=wrap;html=1;fillColor=#dae8fc;strokeColor=#6c8ebf;gradientColor=#7ea6e0;" parent="1" vertex="1">
          <mxGeometry x="200" y="-430" width="140" height="140" as="geometry" />
        </mxCell>
        <mxCell id="REaxnGKnSWV2FAkNkw_x-70" value="&lt;font style=&quot;font-size: 25px;&quot;&gt;1&lt;/font&gt;" style="text;html=1;align=center;verticalAlign=middle;whiteSpace=wrap;rounded=0;" parent="1" vertex="1">
          <mxGeometry x="170" y="-520" width="50" height="60" as="geometry" />
        </mxCell>
        <mxCell id="REaxnGKnSWV2FAkNkw_x-71" value="&lt;font style=&quot;font-size: 25px;&quot;&gt;M&lt;/font&gt;" style="text;html=1;align=center;verticalAlign=middle;whiteSpace=wrap;rounded=0;" parent="1" vertex="1">
          <mxGeometry x="270" y="-250" width="50" height="60" as="geometry" />
        </mxCell>
        <mxCell id="REaxnGKnSWV2FAkNkw_x-74" style="edgeStyle=orthogonalEdgeStyle;rounded=0;orthogonalLoop=1;jettySize=auto;html=1;" parent="1" source="REaxnGKnSWV2FAkNkw_x-73" target="REaxnGKnSWV2FAkNkw_x-2" edge="1">
          <mxGeometry relative="1" as="geometry">
            <Array as="points">
              <mxPoint x="770" y="-360" />
              <mxPoint x="1100" y="-360" />
              <mxPoint x="1100" y="-530" />
            </Array>
          </mxGeometry>
        </mxCell>
        <mxCell id="REaxnGKnSWV2FAkNkw_x-73" value="&lt;span style=&quot;font-size: 20px;&quot;&gt;teach&lt;/span&gt;" style="rhombus;whiteSpace=wrap;html=1;fillColor=#bac8d3;strokeColor=#23445d;" parent="1" vertex="1">
          <mxGeometry x="630" y="-360" width="140" height="140" as="geometry" />
        </mxCell>
        <mxCell id="REaxnGKnSWV2FAkNkw_x-75" style="edgeStyle=orthogonalEdgeStyle;rounded=0;orthogonalLoop=1;jettySize=auto;html=1;entryX=0.991;entryY=0.872;entryDx=0;entryDy=0;entryPerimeter=0;" parent="1" source="REaxnGKnSWV2FAkNkw_x-73" target="REaxnGKnSWV2FAkNkw_x-3" edge="1">
          <mxGeometry relative="1" as="geometry">
            <Array as="points">
              <mxPoint x="350" y="-290" />
              <mxPoint x="350" y="-180" />
              <mxPoint x="318" y="-180" />
            </Array>
          </mxGeometry>
        </mxCell>
        <mxCell id="REaxnGKnSWV2FAkNkw_x-77" value="&lt;font style=&quot;font-size: 25px;&quot;&gt;M&lt;/font&gt;" style="text;html=1;align=center;verticalAlign=middle;whiteSpace=wrap;rounded=0;" parent="1" vertex="1">
          <mxGeometry x="310" y="-230" width="50" height="60" as="geometry" />
        </mxCell>
        <mxCell id="REaxnGKnSWV2FAkNkw_x-146" style="edgeStyle=orthogonalEdgeStyle;rounded=0;orthogonalLoop=1;jettySize=auto;html=1;entryX=0;entryY=0.5;entryDx=0;entryDy=0;" parent="1" source="REaxnGKnSWV2FAkNkw_x-79" target="REaxnGKnSWV2FAkNkw_x-58" edge="1">
          <mxGeometry relative="1" as="geometry" />
        </mxCell>
        <mxCell id="REaxnGKnSWV2FAkNkw_x-147" style="edgeStyle=orthogonalEdgeStyle;rounded=0;orthogonalLoop=1;jettySize=auto;html=1;" parent="1" source="REaxnGKnSWV2FAkNkw_x-79" target="REaxnGKnSWV2FAkNkw_x-59" edge="1">
          <mxGeometry relative="1" as="geometry">
            <Array as="points">
              <mxPoint x="1430" y="-140" />
              <mxPoint x="1430" y="-260" />
            </Array>
          </mxGeometry>
        </mxCell>
        <mxCell id="REaxnGKnSWV2FAkNkw_x-148" style="edgeStyle=orthogonalEdgeStyle;rounded=0;orthogonalLoop=1;jettySize=auto;html=1;entryX=1;entryY=0.5;entryDx=0;entryDy=0;" parent="1" source="REaxnGKnSWV2FAkNkw_x-79" target="REaxnGKnSWV2FAkNkw_x-4" edge="1">
          <mxGeometry relative="1" as="geometry">
            <Array as="points">
              <mxPoint x="1240" y="-130" />
              <mxPoint x="1980" y="-130" />
              <mxPoint x="1980" y="750" />
              <mxPoint x="1490" y="750" />
            </Array>
          </mxGeometry>
        </mxCell>
        <mxCell id="REaxnGKnSWV2FAkNkw_x-150" style="edgeStyle=orthogonalEdgeStyle;rounded=0;orthogonalLoop=1;jettySize=auto;html=1;" parent="1" source="REaxnGKnSWV2FAkNkw_x-79" target="REaxnGKnSWV2FAkNkw_x-2" edge="1">
          <mxGeometry relative="1" as="geometry" />
        </mxCell>
        <mxCell id="REaxnGKnSWV2FAkNkw_x-154" style="edgeStyle=orthogonalEdgeStyle;rounded=0;orthogonalLoop=1;jettySize=auto;html=1;entryX=1;entryY=1;entryDx=0;entryDy=0;" parent="1" source="REaxnGKnSWV2FAkNkw_x-79" target="REaxnGKnSWV2FAkNkw_x-153" edge="1">
          <mxGeometry relative="1" as="geometry">
            <mxPoint x="1340" y="-160" as="sourcePoint" />
            <mxPoint x="1750" y="-230" as="targetPoint" />
            <Array as="points">
              <mxPoint x="1680" y="-160" />
              <mxPoint x="1680" y="-325" />
            </Array>
          </mxGeometry>
        </mxCell>
        <mxCell id="REaxnGKnSWV2FAkNkw_x-79" value="&lt;span style=&quot;font-size: 20px;&quot;&gt;&lt;font style=&quot;color: rgb(255, 255, 255);&quot;&gt;Evalute&lt;/font&gt;&lt;/span&gt;" style="rhombus;whiteSpace=wrap;html=1;fillColor=#f8cecc;strokeColor=#b85450;" parent="1" vertex="1">
          <mxGeometry x="1170" y="-290" width="140" height="140" as="geometry" />
        </mxCell>
        <mxCell id="REaxnGKnSWV2FAkNkw_x-131" style="edgeStyle=orthogonalEdgeStyle;rounded=0;orthogonalLoop=1;jettySize=auto;html=1;entryX=0.75;entryY=0;entryDx=0;entryDy=0;strokeWidth=3;" parent="1" source="REaxnGKnSWV2FAkNkw_x-89" target="REaxnGKnSWV2FAkNkw_x-5" edge="1">
          <mxGeometry relative="1" as="geometry" />
        </mxCell>
        <mxCell id="REaxnGKnSWV2FAkNkw_x-89" value="&lt;span style=&quot;font-size: 20px;&quot;&gt;has&lt;/span&gt;" style="rhombus;whiteSpace=wrap;html=1;fillColor=#dae8fc;strokeColor=#6c8ebf;gradientColor=#7ea6e0;" parent="1" vertex="1">
          <mxGeometry x="195" y="-20" width="140" height="140" as="geometry" />
        </mxCell>
        <mxCell id="REaxnGKnSWV2FAkNkw_x-90" style="edgeStyle=orthogonalEdgeStyle;rounded=0;orthogonalLoop=1;jettySize=auto;html=1;entryX=0.585;entryY=0.997;entryDx=0;entryDy=0;entryPerimeter=0;" parent="1" source="REaxnGKnSWV2FAkNkw_x-89" target="REaxnGKnSWV2FAkNkw_x-3" edge="1">
          <mxGeometry relative="1" as="geometry" />
        </mxCell>
        <mxCell id="REaxnGKnSWV2FAkNkw_x-93" value="&lt;font style=&quot;font-size: 25px;&quot;&gt;1&lt;/font&gt;" style="text;html=1;align=center;verticalAlign=middle;whiteSpace=wrap;rounded=0;" parent="1" vertex="1">
          <mxGeometry x="195" y="-120" width="50" height="60" as="geometry" />
        </mxCell>
        <mxCell id="REaxnGKnSWV2FAkNkw_x-96" style="edgeStyle=orthogonalEdgeStyle;rounded=0;orthogonalLoop=1;jettySize=auto;html=1;strokeWidth=3;" parent="1" source="REaxnGKnSWV2FAkNkw_x-95" target="REaxnGKnSWV2FAkNkw_x-5" edge="1">
          <mxGeometry relative="1" as="geometry" />
        </mxCell>
        <mxCell id="REaxnGKnSWV2FAkNkw_x-97" style="edgeStyle=orthogonalEdgeStyle;rounded=0;orthogonalLoop=1;jettySize=auto;html=1;" parent="1" source="REaxnGKnSWV2FAkNkw_x-95" target="REaxnGKnSWV2FAkNkw_x-10" edge="1">
          <mxGeometry relative="1" as="geometry" />
        </mxCell>
        <mxCell id="REaxnGKnSWV2FAkNkw_x-95" value="&lt;span style=&quot;font-size: 20px;&quot;&gt;has&lt;/span&gt;" style="rhombus;whiteSpace=wrap;html=1;fillColor=#bac8d3;strokeColor=#23445d;" parent="1" vertex="1">
          <mxGeometry x="700" y="70" width="140" height="140" as="geometry" />
        </mxCell>
        <mxCell id="REaxnGKnSWV2FAkNkw_x-99" value="&lt;font style=&quot;font-size: 25px;&quot;&gt;M&lt;/font&gt;" style="text;html=1;align=center;verticalAlign=middle;whiteSpace=wrap;rounded=0;" parent="1" vertex="1">
          <mxGeometry x="1230" y="190" width="50" height="60" as="geometry" />
        </mxCell>
        <mxCell id="REaxnGKnSWV2FAkNkw_x-100" value="&lt;span style=&quot;font-size: 20px;&quot;&gt;has&lt;/span&gt;" style="rhombus;whiteSpace=wrap;html=1;fillColor=#bac8d3;strokeColor=#23445d;" parent="1" vertex="1">
          <mxGeometry x="970" y="320" width="140" height="140" as="geometry" />
        </mxCell>
        <mxCell id="REaxnGKnSWV2FAkNkw_x-101" style="edgeStyle=orthogonalEdgeStyle;rounded=0;orthogonalLoop=1;jettySize=auto;html=1;entryX=0.141;entryY=0.012;entryDx=0;entryDy=0;entryPerimeter=0;" parent="1" source="REaxnGKnSWV2FAkNkw_x-100" target="REaxnGKnSWV2FAkNkw_x-4" edge="1">
          <mxGeometry relative="1" as="geometry" />
        </mxCell>
        <mxCell id="REaxnGKnSWV2FAkNkw_x-102" style="edgeStyle=orthogonalEdgeStyle;rounded=0;orthogonalLoop=1;jettySize=auto;html=1;entryX=0.85;entryY=0.875;entryDx=0;entryDy=0;entryPerimeter=0;" parent="1" source="REaxnGKnSWV2FAkNkw_x-100" target="REaxnGKnSWV2FAkNkw_x-3" edge="1">
          <mxGeometry relative="1" as="geometry">
            <Array as="points">
              <mxPoint x="900" y="390" />
              <mxPoint x="900" y="-70" />
              <mxPoint x="290" y="-70" />
            </Array>
          </mxGeometry>
        </mxCell>
        <mxCell id="REaxnGKnSWV2FAkNkw_x-103" value="&lt;font style=&quot;font-size: 25px;&quot;&gt;M&lt;/font&gt;" style="text;html=1;align=center;verticalAlign=middle;whiteSpace=wrap;rounded=0;" parent="1" vertex="1">
          <mxGeometry x="245" y="-130" width="50" height="60" as="geometry" />
        </mxCell>
        <mxCell id="REaxnGKnSWV2FAkNkw_x-104" value="&lt;font style=&quot;font-size: 25px;&quot;&gt;M&lt;/font&gt;" style="text;html=1;align=center;verticalAlign=middle;whiteSpace=wrap;rounded=0;" parent="1" vertex="1">
          <mxGeometry x="1280" y="660" width="50" height="60" as="geometry" />
        </mxCell>
        <mxCell id="REaxnGKnSWV2FAkNkw_x-105" value="&lt;font style=&quot;font-size: 18px;&quot;&gt;is_correct&lt;/font&gt;" style="ellipse;whiteSpace=wrap;html=1;fillColor=light-dark(#FFFF88,#333333);strokeColor=#36393d;rounded=0;" parent="1" vertex="1">
          <mxGeometry x="-40" y="960" width="120" height="80" as="geometry" />
        </mxCell>
        <mxCell id="REaxnGKnSWV2FAkNkw_x-107" value="&lt;font style=&quot;font-size: 18px;&quot;&gt;faculty&lt;/font&gt;" style="ellipse;whiteSpace=wrap;html=1;fillColor=light-dark(#FFFF88,#333333);strokeColor=#36393d;rounded=0;" parent="1" vertex="1">
          <mxGeometry x="1180" y="940" width="120" height="80" as="geometry" />
        </mxCell>
        <mxCell id="REaxnGKnSWV2FAkNkw_x-109" value="&lt;font style=&quot;font-size: 18px;&quot;&gt;Total_Mark&lt;/font&gt;" style="ellipse;whiteSpace=wrap;html=1;fillColor=light-dark(#FFFF88,#333333);strokeColor=#36393d;rounded=0;" parent="1" vertex="1">
          <mxGeometry x="-150" y="190" width="120" height="80" as="geometry" />
        </mxCell>
        <mxCell id="REaxnGKnSWV2FAkNkw_x-112" value="&lt;font style=&quot;font-size: 18px;&quot;&gt;pass_score&lt;/font&gt;" style="ellipse;whiteSpace=wrap;html=1;fillColor=light-dark(#FFFF88,#333333);strokeColor=#36393d;rounded=0;" parent="1" vertex="1">
          <mxGeometry x="-20" y="410" width="120" height="80" as="geometry" />
        </mxCell>
        <mxCell id="REaxnGKnSWV2FAkNkw_x-115" value="&lt;font style=&quot;font-size: 18px;&quot;&gt;content&lt;/font&gt;" style="ellipse;whiteSpace=wrap;html=1;fillColor=light-dark(#FFFF88,#333333);strokeColor=#36393d;rounded=0;" parent="1" vertex="1">
          <mxGeometry x="1450" y="380" width="120" height="80" as="geometry" />
        </mxCell>
        <mxCell id="REaxnGKnSWV2FAkNkw_x-118" value="&lt;span style=&quot;font-size: 18px;&quot;&gt;correct_ans&lt;/span&gt;" style="ellipse;whiteSpace=wrap;html=1;fillColor=light-dark(#FFFF88,#333333);strokeColor=#36393d;rounded=0;" parent="1" vertex="1">
          <mxGeometry x="1440" y="30" width="120" height="80" as="geometry" />
        </mxCell>
        <mxCell id="REaxnGKnSWV2FAkNkw_x-120" value="&lt;font style=&quot;font-size: 18px;&quot;&gt;selected_ans&lt;/font&gt;" style="ellipse;whiteSpace=wrap;html=1;fillColor=light-dark(#FFFF88,#333333);strokeColor=#36393d;rounded=0;" parent="1" vertex="1">
          <mxGeometry x="295" y="910" width="120" height="80" as="geometry" />
        </mxCell>
        <mxCell id="REaxnGKnSWV2FAkNkw_x-121" style="edgeStyle=orthogonalEdgeStyle;rounded=0;orthogonalLoop=1;jettySize=auto;html=1;entryX=0.665;entryY=1.022;entryDx=0;entryDy=0;entryPerimeter=0;" parent="1" source="REaxnGKnSWV2FAkNkw_x-120" target="REaxnGKnSWV2FAkNkw_x-8" edge="1">
          <mxGeometry relative="1" as="geometry" />
        </mxCell>
        <mxCell id="REaxnGKnSWV2FAkNkw_x-123" style="edgeStyle=orthogonalEdgeStyle;rounded=0;orthogonalLoop=1;jettySize=auto;html=1;" parent="1" source="REaxnGKnSWV2FAkNkw_x-122" target="REaxnGKnSWV2FAkNkw_x-8" edge="1">
          <mxGeometry relative="1" as="geometry">
            <Array as="points">
              <mxPoint x="170" y="910" />
            </Array>
          </mxGeometry>
        </mxCell>
        <mxCell id="REaxnGKnSWV2FAkNkw_x-122" value="&lt;font style=&quot;font-size: 18px;&quot;&gt;&lt;u&gt;Answer_id&lt;/u&gt;&lt;/font&gt;" style="ellipse;whiteSpace=wrap;html=1;fillColor=#f5f5f5;strokeColor=#666666;rounded=0;fontColor=#333333;" parent="1" vertex="1">
          <mxGeometry x="-190" y="870" width="120" height="80" as="geometry" />
        </mxCell>
        <mxCell id="REaxnGKnSWV2FAkNkw_x-126" value="&lt;span style=&quot;font-size: 20px;&quot;&gt;do&lt;/span&gt;" style="rhombus;whiteSpace=wrap;html=1;fillColor=#dae8fc;strokeColor=#6c8ebf;gradientColor=#7ea6e0;" parent="1" vertex="1">
          <mxGeometry x="680" y="850" width="140" height="140" as="geometry" />
        </mxCell>
        <mxCell id="REaxnGKnSWV2FAkNkw_x-127" style="edgeStyle=orthogonalEdgeStyle;rounded=0;orthogonalLoop=1;jettySize=auto;html=1;entryX=0.9;entryY=0.5;entryDx=0;entryDy=0;entryPerimeter=0;strokeWidth=4;" parent="1" source="REaxnGKnSWV2FAkNkw_x-126" target="REaxnGKnSWV2FAkNkw_x-8" edge="1">
          <mxGeometry relative="1" as="geometry">
            <Array as="points">
              <mxPoint x="670" y="920" />
              <mxPoint x="670" y="760" />
            </Array>
          </mxGeometry>
        </mxCell>
        <mxCell id="REaxnGKnSWV2FAkNkw_x-128" style="edgeStyle=orthogonalEdgeStyle;rounded=0;orthogonalLoop=1;jettySize=auto;html=1;entryX=0.004;entryY=0.856;entryDx=0;entryDy=0;entryPerimeter=0;" parent="1" source="REaxnGKnSWV2FAkNkw_x-126" target="REaxnGKnSWV2FAkNkw_x-4" edge="1">
          <mxGeometry relative="1" as="geometry" />
        </mxCell>
        <mxCell id="REaxnGKnSWV2FAkNkw_x-130" value="&lt;font style=&quot;font-size: 25px;&quot;&gt;M&lt;/font&gt;" style="text;html=1;align=center;verticalAlign=middle;whiteSpace=wrap;rounded=0;" parent="1" vertex="1">
          <mxGeometry x="220" y="150" width="50" height="60" as="geometry" />
        </mxCell>
        <mxCell id="REaxnGKnSWV2FAkNkw_x-133" value="&lt;font style=&quot;font-size: 25px;&quot;&gt;M&lt;/font&gt;" style="text;html=1;align=center;verticalAlign=middle;whiteSpace=wrap;rounded=0;" parent="1" vertex="1">
          <mxGeometry x="320" y="710" width="50" height="60" as="geometry" />
        </mxCell>
        <mxCell id="REaxnGKnSWV2FAkNkw_x-134" value="&lt;font style=&quot;font-size: 25px;&quot;&gt;1&lt;/font&gt;" style="text;html=1;align=center;verticalAlign=middle;whiteSpace=wrap;rounded=0;" parent="1" vertex="1">
          <mxGeometry x="1240" y="780" width="50" height="60" as="geometry" />
        </mxCell>
        <mxCell id="REaxnGKnSWV2FAkNkw_x-137" value="&lt;font style=&quot;font-size: 25px;&quot;&gt;M&lt;/font&gt;" style="text;html=1;align=center;verticalAlign=middle;whiteSpace=wrap;rounded=0;" parent="1" vertex="1">
          <mxGeometry x="1240" y="-540" width="50" height="60" as="geometry" />
        </mxCell>
        <mxCell id="REaxnGKnSWV2FAkNkw_x-138" value="&lt;font style=&quot;font-size: 25px;&quot;&gt;M&lt;/font&gt;" style="text;html=1;align=center;verticalAlign=middle;whiteSpace=wrap;rounded=0;" parent="1" vertex="1">
          <mxGeometry x="320" y="180" width="50" height="60" as="geometry" />
        </mxCell>
        <mxCell id="REaxnGKnSWV2FAkNkw_x-151" style="edgeStyle=orthogonalEdgeStyle;rounded=0;orthogonalLoop=1;jettySize=auto;html=1;entryX=0.922;entryY=0.999;entryDx=0;entryDy=0;entryPerimeter=0;" parent="1" source="REaxnGKnSWV2FAkNkw_x-79" target="REaxnGKnSWV2FAkNkw_x-3" edge="1">
          <mxGeometry relative="1" as="geometry">
            <Array as="points">
              <mxPoint x="745" y="-210" />
              <mxPoint x="745" y="-140" />
              <mxPoint x="304" y="-140" />
            </Array>
          </mxGeometry>
        </mxCell>
        <mxCell id="REaxnGKnSWV2FAkNkw_x-153" value="&lt;font style=&quot;font-size: 18px;&quot;&gt;professor_rating&lt;/font&gt;" style="ellipse;whiteSpace=wrap;html=1;fillColor=light-dark(#FFFF88,#333333);strokeColor=#36393d;rounded=0;" parent="1" vertex="1">
          <mxGeometry x="1610" y="-410" width="160" height="100" as="geometry" />
        </mxCell>
        <mxCell id="REaxnGKnSWV2FAkNkw_x-155" value="&lt;font style=&quot;font-size: 25px;&quot;&gt;M&lt;/font&gt;" style="text;html=1;align=center;verticalAlign=middle;whiteSpace=wrap;rounded=0;" parent="1" vertex="1">
          <mxGeometry x="1340" y="-510" width="50" height="60" as="geometry" />
        </mxCell>
        <mxCell id="REaxnGKnSWV2FAkNkw_x-156" value="&lt;font style=&quot;font-size: 25px;&quot;&gt;M&lt;/font&gt;" style="text;html=1;align=center;verticalAlign=middle;whiteSpace=wrap;rounded=0;" parent="1" vertex="1">
          <mxGeometry x="1520" y="710" width="50" height="60" as="geometry" />
        </mxCell>
        <mxCell id="REaxnGKnSWV2FAkNkw_x-157" value="&lt;font style=&quot;font-size: 25px;&quot;&gt;M&lt;/font&gt;" style="text;html=1;align=center;verticalAlign=middle;whiteSpace=wrap;rounded=0;" parent="1" vertex="1">
          <mxGeometry x="310" y="-150" width="50" height="60" as="geometry" />
        </mxCell>
        <mxCell id="REaxnGKnSWV2FAkNkw_x-161" style="edgeStyle=orthogonalEdgeStyle;rounded=0;orthogonalLoop=1;jettySize=auto;html=1;entryX=0.25;entryY=1;entryDx=0;entryDy=0;" parent="1" source="REaxnGKnSWV2FAkNkw_x-158" target="REaxnGKnSWV2FAkNkw_x-10" edge="1">
          <mxGeometry relative="1" as="geometry">
            <Array as="points">
              <mxPoint x="570" y="500" />
              <mxPoint x="1340" y="500" />
            </Array>
          </mxGeometry>
        </mxCell>
        <mxCell id="REaxnGKnSWV2FAkNkw_x-158" value="&lt;span style=&quot;font-size: 20px;&quot;&gt;has&lt;/span&gt;" style="rhombus;whiteSpace=wrap;html=1;fillColor=#647687;fontColor=#ffffff;strokeColor=#314354;" parent="1" vertex="1">
          <mxGeometry x="500" y="350" width="140" height="140" as="geometry" />
        </mxCell>
        <mxCell id="REaxnGKnSWV2FAkNkw_x-163" value="&lt;font style=&quot;font-size: 25px;&quot;&gt;1&lt;/font&gt;" style="text;html=1;align=center;verticalAlign=middle;whiteSpace=wrap;rounded=0;" parent="1" vertex="1">
          <mxGeometry x="1300" y="275" width="50" height="60" as="geometry" />
        </mxCell>
        <mxCell id="REaxnGKnSWV2FAkNkw_x-164" value="&lt;font style=&quot;font-size: 25px;&quot;&gt;1&lt;/font&gt;" style="text;html=1;align=center;verticalAlign=middle;whiteSpace=wrap;rounded=0;" parent="1" vertex="1">
          <mxGeometry x="180" y="670" width="50" height="60" as="geometry" />
        </mxCell>
        <mxCell id="REaxnGKnSWV2FAkNkw_x-181" value="&lt;font style=&quot;font-size: 18px;&quot;&gt;head_id&lt;/font&gt;" style="ellipse;whiteSpace=wrap;html=1;fillColor=light-dark(#FFFF88,#333333);strokeColor=#36393d;rounded=0;" parent="1" vertex="1">
          <mxGeometry x="330" y="-800" width="120" height="80" as="geometry" />
        </mxCell>
        <mxCell id="REaxnGKnSWV2FAkNkw_x-189" style="edgeStyle=orthogonalEdgeStyle;rounded=0;orthogonalLoop=1;jettySize=auto;html=1;strokeWidth=4;" parent="1" source="REaxnGKnSWV2FAkNkw_x-158" target="REaxnGKnSWV2FAkNkw_x-8" edge="1">
          <mxGeometry relative="1" as="geometry">
            <mxPoint x="392.5" y="710" as="sourcePoint" />
            <mxPoint x="27.5" y="550" as="targetPoint" />
            <Array as="points">
              <mxPoint x="235" y="420" />
            </Array>
          </mxGeometry>
        </mxCell>
        <mxCell id="c0Z01VkJSE__bcasoXCC-4" style="edgeStyle=orthogonalEdgeStyle;rounded=0;orthogonalLoop=1;jettySize=auto;html=1;exitX=0.5;exitY=1;exitDx=0;exitDy=0;entryX=0.75;entryY=0;entryDx=0;entryDy=0;strokeWidth=4;" edge="1" parent="1" source="c0Z01VkJSE__bcasoXCC-1" target="REaxnGKnSWV2FAkNkw_x-8">
          <mxGeometry relative="1" as="geometry" />
        </mxCell>
        <mxCell id="c0Z01VkJSE__bcasoXCC-1" value="&lt;span style=&quot;font-size: 20px;&quot;&gt;has&lt;/span&gt;" style="rhombus;whiteSpace=wrap;html=1;fillColor=#647687;fontColor=#ffffff;strokeColor=#314354;" vertex="1" parent="1">
          <mxGeometry x="220" y="410" width="140" height="140" as="geometry" />
        </mxCell>
        <mxCell id="c0Z01VkJSE__bcasoXCC-3" style="edgeStyle=orthogonalEdgeStyle;rounded=0;orthogonalLoop=1;jettySize=auto;html=1;exitX=0.5;exitY=0;exitDx=0;exitDy=0;entryX=0.65;entryY=1.063;entryDx=0;entryDy=0;entryPerimeter=0;" edge="1" parent="1" source="c0Z01VkJSE__bcasoXCC-1" target="REaxnGKnSWV2FAkNkw_x-5">
          <mxGeometry relative="1" as="geometry" />
        </mxCell>
        <mxCell id="c0Z01VkJSE__bcasoXCC-5" value="&lt;font style=&quot;font-size: 25px;&quot;&gt;M&lt;/font&gt;" style="text;html=1;align=center;verticalAlign=middle;whiteSpace=wrap;rounded=0;" vertex="1" parent="1">
          <mxGeometry x="290" y="670" width="50" height="60" as="geometry" />
        </mxCell>
        <mxCell id="c0Z01VkJSE__bcasoXCC-6" value="&lt;font style=&quot;font-size: 25px;&quot;&gt;1&lt;/font&gt;" style="text;html=1;align=center;verticalAlign=middle;whiteSpace=wrap;rounded=0;" vertex="1" parent="1">
          <mxGeometry x="250" y="260" width="50" height="60" as="geometry" />
        </mxCell>
      </root>
    </mxGraphModel>
  </diagram>
</mxfile>
